<?xml version="1.0" encoding="UTF-8" standalone="no"?>
<!DOCTYPE svg PUBLIC "-//W3C//DTD SVG 1.1//EN" "http://www.w3.org/Graphics/SVG/1.1/DTD/svg11.dtd">
<svg xmlns="http://www.w3.org/2000/svg" version="1.1" viewBox="0.00 0.00 1024.00 1024.00">
<path fill="#000000" d="
  M 550.16 548.74
  L 552.51 551.02
  L 554.19 553.64
  L 554.73 555.03
  L 555.07 556.44
  L 555.14 559.22
  L 554.82 560.81
  L 554.24 562.33
  L 553.40 563.77
  L 552.32 565.10
  L 551.02 566.27
  L 549.50 567.30
  L 547.86 568.11
  L 546.04 568.75
  L 539.90 570.34
  L 533.69 571.62
  L 527.32 572.62
  L 520.90 573.30
  L 514.44 573.68
  L 507.96 573.75
  L 501.48 573.50
  L 495.03 572.96
  L 488.60 572.11
  L 482.24 570.95
  L 475.94 569.49
  L 469.72 567.74
  L 463.64 565.69
  L 457.67 563.35
  L 451.93 560.76
  L 446.34 557.89
  L 441.32 555.02
  L 436.47 551.99
  L 431.80 548.81
  L 427.29 545.47
  L 422.96 541.97
  L 418.80 538.31
  L 414.81 534.49
  L 410.99 530.51
  L 410.99 530.51
  L 410.99 530.51
  L 404.61 523.02
  L 398.77 515.03
  L 393.47 506.53
  L 388.73 497.53
  L 386.43 492.34
  L 384.30 486.61
  L 382.32 480.34
  L 380.50 473.52
  L 379.10 467.25
  L 377.98 461.02
  L 377.14 454.82
  L 376.59 448.66
  L 376.33 442.53
  L 376.35 436.43
  L 376.65 430.37
  L 377.24 424.35
  L 377.24 424.35
  L 377.24 424.35
  L 377.24 424.35
  L 377.24 424.35
  L 378.48 416.31
  L 380.23 408.34
  L 382.49 400.44
  L 385.26 392.59
  L 387.26 387.73
  L 389.43 382.96
  L 391.78 378.30
  L 394.30 373.74
  L 398.62 366.78
  L 403.33 360.11
  L 408.44 353.73
  L 413.93 347.68
  L 419.78 341.95
  L 425.98 336.56
  L 432.51 331.54
  L 439.37 326.89
  L 446.89 322.54
  L 455.59 318.31
  L 460.86 316.08
  L 466.21 314.10
  L 471.73 312.34
  L 477.31 310.84
  L 482.99 309.59
  L 488.72 308.59
  L 494.48 307.84
  L 500.27 307.36
  L 506.16 307.12
  L 512.07 307.14
  L 517.97 307.42
  L 523.87 307.95
  L 529.74 308.74
  L 535.58 309.78
  L 541.37 311.07
  L 547.12 312.61
  L 553.76 314.72
  L 559.76 316.99
  L 565.14 319.43
  L 569.89 322.04
  L 572.15 323.63
  L 573.90 325.33
  L 575.14 327.16
  L 575.87 329.11
  L 575.87 329.11
  L 575.87 329.11
  L 575.87 329.11
  L 576.09 331.03
  L 575.87 333.05
  L 575.20 335.17
  L 574.10 337.40
  L 573.13 338.87
  L 572.05 340.10
  L 570.85 341.09
  L 569.55 341.85
  L 569.55 341.85
  L 569.55 341.85
  L 569.55 341.85
  L 567.02 342.62
  L 564.16 342.68
  L 562.37 342.35
  L 560.33 341.69
  L 554.76 339.02
  L 550.93 337.09
  L 548.05 335.90
  L 541.86 333.91
  L 535.71 332.26
  L 529.59 330.95
  L 523.49 329.98
  L 517.43 329.35
  L 511.41 329.06
  L 505.41 329.11
  L 499.45 329.49
  L 499.45 329.49
  L 499.45 329.49
  L 490.85 330.66
  L 481.41 332.73
  L 472.37 335.51
  L 468.00 337.16
  L 463.73 339.00
  L 459.57 341.00
  L 455.50 343.19
  L 455.50 343.19
  L 455.50 343.19
  L 455.50 343.19
  L 451.18 345.77
  L 446.97 348.56
  L 442.89 351.56
  L 438.93 354.78
  L 435.08 358.20
  L 431.36 361.83
  L 427.75 365.67
  L 424.26 369.72
  L 420.75 374.17
  L 417.50 378.70
  L 414.50 383.31
  L 411.76 388.00
  L 409.28 392.78
  L 407.06 397.63
  L 405.09 402.56
  L 403.39 407.58
  L 403.39 407.58
  L 403.39 407.58
  L 403.39 407.58
  L 401.81 413.15
  L 400.55 418.82
  L 399.59 424.58
  L 398.95 430.44
  L 398.61 436.40
  L 398.57 442.45
  L 398.85 448.60
  L 399.43 454.84
  L 400.60 462.39
  L 402.28 469.72
  L 403.84 474.95
  L 405.66 480.08
  L 407.78 485.20
  L 410.18 490.21
  L 412.89 495.24
  L 415.87 500.17
  L 419.17 505.09
  L 422.74 509.94
  L 427.27 515.41
  L 432.16 520.52
  L 437.49 525.35
  L 443.13 529.80
  L 449.20 533.95
  L 455.53 537.68
  L 462.19 541.04
  L 469.05 543.97
  L 477.64 546.95
  L 486.27 549.22
  L 494.94 550.79
  L 503.65 551.65
  L 503.65 551.65
  L 503.65 551.65
  L 503.65 551.65
  L 508.35 551.83
  L 513.06 551.79
  L 517.79 551.56
  L 522.52 551.12
  L 532.03 549.63
  L 541.59 547.32
  L 543.19 546.97
  L 544.71 546.85
  L 546.16 546.96
  L 547.53 547.29
  L 547.53 547.29
  L 547.53 547.29
  L 548.89 547.89
  L 550.16 548.74
  Z"
/>
<path fill="#000000" d="
  M 566.16 381.55
  L 566.44 381.67
  L 566.72 381.59
  L 573.51 376.26
  L 588.08 364.29
  L 602.64 353.08
  L 617.16 342.62
  L 631.67 332.93
  L 633.48 332.10
  L 635.07 331.84
  L 636.67 331.93
  L 638.35 332.38
  L 639.96 333.15
  L 641.57 334.27
  L 642.99 335.65
  L 644.17 337.21
  L 645.04 338.89
  L 645.59 340.49
  L 645.90 341.99
  L 645.99 343.50
  L 645.85 344.92
  L 645.47 346.31
  L 644.90 347.63
  L 643.06 350.22
  L 640.32 352.79
  L 635.97 355.97
  L 622.70 365.35
  L 609.86 374.85
  L 597.47 384.49
  L 585.51 394.26
  L 580.95 398.44
  L 580.43 399.53
  L 580.67 400.70
  L 584.44 407.86
  L 587.43 415.13
  L 589.66 422.50
  L 591.12 429.99
  L 591.12 429.99
  L 591.82 437.63
  L 591.73 445.39
  L 590.87 453.25
  L 589.23 461.23
  L 587.78 466.10
  L 585.86 471.13
  L 583.47 476.30
  L 580.60 481.62
  L 576.81 487.60
  L 572.50 493.26
  L 567.75 498.48
  L 562.64 503.19
  L 557.61 507.10
  L 552.34 510.57
  L 546.75 513.64
  L 540.98 516.25
  L 534.95 518.43
  L 528.80 520.12
  L 522.54 521.33
  L 516.21 522.06
  L 509.84 522.29
  L 503.47 522.04
  L 497.12 521.30
  L 490.84 520.06
  L 484.74 518.36
  L 478.76 516.16
  L 473.03 513.53
  L 467.47 510.42
  L 461.84 506.64
  L 456.49 502.32
  L 451.54 497.58
  L 446.91 492.34
  L 443.06 487.21
  L 439.66 481.91
  L 436.71 476.43
  L 434.22 470.77
  L 434.22 470.77
  L 434.22 470.77
  L 432.34 465.45
  L 430.84 459.99
  L 429.83 455.08
  L 429.13 450.07
  L 428.73 445.00
  L 428.64 439.88
  L 428.86 434.70
  L 429.40 429.47
  L 430.24 424.19
  L 431.40 418.85
  L 432.86 413.46
  L 433.62 411.55
  L 435.09 408.60
  L 436.33 406.14
  L 439.42 400.20
  L 442.88 394.62
  L 446.73 389.40
  L 450.96 384.54
  L 450.96 384.54
  L 450.96 384.54
  L 450.96 384.54
  L 455.08 380.48
  L 459.50 376.71
  L 464.23 373.23
  L 469.27 370.04
  L 476.15 366.36
  L 478.97 365.14
  L 481.37 364.35
  L 485.85 362.93
  L 491.49 361.32
  L 497.66 360.15
  L 504.35 359.44
  L 511.57 359.18
  L 518.79 359.51
  L 526.09 360.59
  L 533.30 362.40
  L 540.31 364.90
  L 547.23 368.12
  L 553.85 371.97
  L 560.20 376.48
  L 566.16 381.55
  Z"
/>
<path fill="#000000" d="
  M 642.71 441.65
  L 642.47 449.51
  L 641.72 457.31
  L 640.67 464.06
  L 639.25 470.75
  L 637.64 475.68
  L 636.54 477.79
  L 635.10 479.48
  L 633.31 480.81
  L 631.31 481.71
  L 629.06 482.18
  L 626.77 482.19
  L 624.51 481.76
  L 622.38 480.87
  L 620.55 479.62
  L 619.00 477.98
  L 617.91 476.18
  L 617.18 474.07
  L 617.13 471.66
  L 617.85 467.99
  L 619.20 461.76
  L 620.17 455.30
  L 620.75 448.60
  L 620.94 441.66
  L 620.75 434.71
  L 620.16 428.01
  L 619.19 421.55
  L 617.83 415.32
  L 617.12 411.65
  L 617.16 409.24
  L 617.89 407.14
  L 618.98 405.33
  L 620.53 403.69
  L 622.36 402.44
  L 624.49 401.55
  L 626.75 401.11
  L 629.04 401.13
  L 631.28 401.60
  L 633.29 402.49
  L 635.08 403.82
  L 636.52 405.51
  L 637.62 407.62
  L 639.23 412.55
  L 640.66 419.24
  L 641.72 425.99
  L 641.72 425.99
  L 642.46 433.79
  L 642.71 441.65
  Z"
/>
<path fill="#000000" d="
  M 600.43 518.73
  L 601.27 518.27
  L 610.55 509.09
  L 612.99 507.34
  L 614.36 506.72
  L 615.74 506.31
  L 618.17 506.07
  L 620.55 506.36
  L 622.90 507.18
  L 625.01 508.45
  L 626.79 510.11
  L 628.15 512.07
  L 628.97 514.18
  L 629.26 516.44
  L 629.11 518.02
  L 628.65 519.63
  L 627.92 521.14
  L 626.87 522.65
  L 620.08 530.41
  L 612.37 538.02
  L 612.20 538.50
  L 612.52 538.90
  L 612.52 538.90
  L 612.73 538.95
  L 614.80 539.06
  L 616.75 539.39
  L 618.60 539.92
  L 620.34 540.67
  L 620.34 540.67
  L 622.72 542.18
  L 624.87 544.15
  L 625.40 544.92
  L 625.79 545.95
  L 626.19 548.77
  L 626.14 551.04
  L 625.78 553.07
  L 625.12 554.87
  L 624.15 556.42
  L 624.15 556.42
  L 624.15 556.42
  L 624.15 556.42
  L 622.97 557.66
  L 621.53 558.68
  L 619.81 559.50
  L 617.83 560.11
  L 616.27 560.29
  L 614.24 560.17
  L 612.66 560.07
  L 589.00 559.98
  L 586.18 559.81
  L 583.98 559.39
  L 582.26 558.70
  L 580.88 557.64
  L 580.08 556.55
  L 579.50 555.19
  L 579.16 553.62
  L 579.03 551.75
  L 578.92 527.69
  L 579.10 509.05
  L 579.26 507.88
  L 579.67 506.66
  L 581.28 504.06
  L 582.52 502.70
  L 583.87 501.63
  L 585.38 500.78
  L 586.96 500.22
  L 588.64 499.94
  L 590.34 499.95
  L 592.02 500.24
  L 593.65 500.80
  L 595.26 501.64
  L 596.75 502.75
  L 598.03 504.03
  L 599.16 505.52
  L 599.77 507.01
  L 600.11 509.18
  L 600.18 512.11
  L 599.99 516.22
  L 599.87 518.34
  L 600.01 518.66
  L 600.34 518.76
  L 600.34 518.76
  L 600.43 518.73
  Z"
/>
<path fill="#000000" d="
  M 360.57 647.33
  L 357.52 647.92
  L 354.48 648.07
  L 351.57 647.81
  L 350.66 647.54
  L 349.86 647.03
  L 349.23 646.33
  L 348.80 645.49
  L 348.01 643.56
  L 347.04 641.84
  L 345.89 640.35
  L 344.56 639.07
  L 344.56 639.07
  L 344.56 639.07
  L 342.65 637.78
  L 340.46 636.83
  L 338.00 636.21
  L 335.25 635.94
  L 332.50 636.10
  L 329.62 636.69
  L 327.35 637.57
  L 325.72 638.69
  L 323.86 640.74
  L 322.56 642.83
  L 321.91 644.83
  L 321.89 646.68
  L 322.31 648.13
  L 323.09 649.45
  L 324.26 650.73
  L 325.71 651.85
  L 327.59 652.91
  L 329.67 653.77
  L 331.99 654.44
  L 334.34 654.88
  L 344.02 656.71
  L 346.80 657.40
  L 349.43 658.32
  L 351.89 659.47
  L 354.20 660.86
  L 356.83 662.90
  L 358.89 665.01
  L 360.56 667.36
  L 360.56 667.36
  L 360.56 667.36
  L 361.50 669.16
  L 362.25 671.09
  L 362.79 673.13
  L 363.14 675.29
  L 363.30 678.74
  L 363.02 681.97
  L 362.27 685.06
  L 361.09 687.91
  L 359.94 689.87
  L 358.56 691.69
  L 356.96 693.37
  L 355.16 694.89
  L 353.12 696.30
  L 350.88 697.55
  L 348.46 698.63
  L 345.87 699.56
  L 343.97 700.10
  L 343.97 700.10
  L 341.42 700.63
  L 338.83 700.98
  L 333.49 701.07
  L 327.95 700.38
  L 322.22 698.91
  L 319.00 697.67
  L 316.15 696.13
  L 313.66 694.28
  L 311.55 692.12
  L 311.55 692.12
  L 311.55 692.12
  L 309.45 689.04
  L 307.91 685.49
  L 307.28 683.16
  L 306.96 680.90
  L 306.96 678.71
  L 307.27 676.59
  L 307.27 676.59
  L 307.75 674.96
  L 308.24 674.30
  L 309.02 674.05
  L 318.11 674.05
  L 319.15 674.43
  L 319.70 675.39
  L 319.88 676.57
  L 320.41 679.56
  L 321.12 681.54
  L 322.14 683.16
  L 323.34 684.50
  L 324.55 685.51
  L 325.87 686.32
  L 328.99 687.51
  L 332.81 688.10
  L 337.28 688.09
  L 341.06 687.49
  L 342.76 686.93
  L 344.33 686.19
  L 346.77 684.56
  L 348.53 682.76
  L 349.65 680.77
  L 350.05 678.71
  L 349.97 677.55
  L 349.67 676.40
  L 349.15 675.27
  L 348.42 674.17
  L 346.41 672.19
  L 343.64 670.44
  L 341.86 669.77
  L 339.15 669.09
  L 335.08 668.26
  L 328.03 666.72
  L 323.21 665.24
  L 319.10 663.33
  L 315.59 660.89
  L 312.83 658.12
  L 310.45 654.81
  L 309.22 652.31
  L 308.43 649.65
  L 308.06 646.76
  L 308.12 643.83
  L 308.62 640.84
  L 309.53 637.95
  L 310.83 635.23
  L 312.49 632.76
  L 313.58 631.49
  L 316.08 629.21
  L 319.04 627.30
  L 322.32 625.83
  L 325.99 624.77
  L 330.01 624.12
  L 334.29 623.91
  L 338.86 624.13
  L 343.47 624.78
  L 346.36 625.50
  L 349.10 626.53
  L 351.66 627.86
  L 354.00 629.47
  L 356.11 631.34
  L 357.95 633.46
  L 359.43 635.72
  L 360.62 638.18
  L 361.65 641.61
  L 362.08 645.31
  L 361.99 645.98
  L 361.68 646.58
  L 361.19 647.05
  L 360.57 647.33
  Z"
/>
<path fill="#000000" d="
  M 451.90 674.26
  L 452.38 674.52
  L 452.59 675.03
  L 452.91 677.45
  L 453.51 679.62
  L 454.41 681.55
  L 455.59 683.24
  L 457.30 684.87
  L 459.38 686.19
  L 461.85 687.18
  L 464.69 687.86
  L 467.44 688.14
  L 470.24 688.09
  L 473.06 687.71
  L 475.62 687.03
  L 477.85 686.08
  L 479.65 684.91
  L 481.10 683.52
  L 482.20 681.83
  L 482.88 679.85
  L 483.08 677.54
  L 482.97 676.61
  L 482.37 675.10
  L 481.32 673.75
  L 479.80 672.51
  L 477.73 671.32
  L 475.24 670.25
  L 472.25 669.25
  L 463.84 667.18
  L 460.55 666.43
  L 457.10 665.41
  L 453.71 664.03
  L 450.70 662.41
  L 448.07 660.57
  L 445.94 658.61
  L 444.31 656.54
  L 443.11 654.27
  L 442.44 651.98
  L 442.44 651.98
  L 441.89 648.18
  L 441.74 644.86
  L 441.97 641.89
  L 442.61 639.05
  L 443.32 637.15
  L 444.26 635.26
  L 445.45 633.39
  L 446.90 631.50
  L 448.48 629.87
  L 450.35 628.44
  L 452.51 627.22
  L 454.95 626.19
  L 459.63 624.82
  L 464.53 623.99
  L 469.43 623.77
  L 474.10 624.15
  L 478.49 625.12
  L 482.48 626.64
  L 486.14 628.75
  L 489.28 631.35
  L 492.12 634.68
  L 493.21 636.45
  L 494.05 638.32
  L 494.05 638.32
  L 494.05 638.32
  L 494.61 640.22
  L 494.94 642.21
  L 495.02 644.28
  L 494.87 646.45
  L 494.37 647.41
  L 493.37 647.82
  L 484.76 648.14
  L 483.95 648.03
  L 483.21 647.67
  L 482.64 647.08
  L 482.29 646.34
  L 481.25 643.66
  L 479.75 641.27
  L 477.89 639.35
  L 475.64 637.87
  L 474.10 637.23
  L 472.03 636.64
  L 469.93 636.25
  L 467.92 636.08
  L 465.94 636.14
  L 464.12 636.40
  L 462.36 636.89
  L 460.77 637.57
  L 459.28 638.47
  L 457.30 640.20
  L 456.34 641.39
  L 455.64 642.58
  L 455.20 643.78
  L 455.03 644.99
  L 455.13 646.25
  L 455.90 648.49
  L 457.41 650.51
  L 459.62 652.15
  L 462.59 653.46
  L 466.27 654.41
  L 466.56 654.47
  L 476.83 656.68
  L 480.52 657.79
  L 483.75 659.03
  L 486.62 660.47
  L 489.08 662.09
  L 491.26 663.99
  L 493.03 666.06
  L 494.67 668.76
  L 495.86 671.70
  L 496.65 675.00
  L 497.05 678.76
  L 496.76 681.24
  L 495.74 685.17
  L 494.78 687.62
  L 493.45 689.91
  L 491.69 692.15
  L 489.64 694.18
  L 487.19 696.08
  L 484.55 697.69
  L 481.74 699.00
  L 478.91 699.92
  L 473.65 700.89
  L 468.16 701.20
  L 462.79 700.85
  L 457.71 699.83
  L 453.24 698.24
  L 449.34 696.08
  L 447.68 694.82
  L 446.15 693.42
  L 444.84 691.93
  L 443.67 690.29
  L 443.26 689.62
  L 442.16 687.46
  L 441.15 685.02
  L 440.44 682.78
  L 440.00 680.70
  L 439.85 678.89
  L 439.98 677.41
  L 440.39 676.19
  L 441.12 675.20
  L 442.24 674.47
  L 443.79 674.11
  L 448.12 673.94
  L 451.90 674.26
  Z"
/>
<path fill="#000000" d="
  M 700.55 658.16
  L 691.99 678.70
  L 684.95 696.20
  L 683.86 698.42
  L 682.66 699.77
  L 681.87 700.03
  L 672.72 700.03
  L 671.85 699.77
  L 671.28 699.06
  L 654.85 659.08
  L 654.80 659.00
  L 654.45 659.10
  L 654.04 660.82
  L 653.91 662.51
  L 654.01 696.92
  L 653.86 698.41
  L 653.35 699.36
  L 652.43 699.85
  L 651.02 700.00
  L 640.61 699.87
  L 640.06 699.66
  L 639.73 699.18
  L 639.55 698.56
  L 639.16 696.19
  L 639.06 693.12
  L 639.05 691.88
  L 638.95 675.69
  L 639.12 659.41
  L 639.56 643.02
  L 640.27 626.53
  L 640.42 625.92
  L 640.78 625.42
  L 641.31 625.08
  L 641.92 624.96
  L 655.07 624.96
  L 655.95 625.23
  L 656.53 625.94
  L 676.91 675.54
  L 677.35 675.93
  L 677.93 675.81
  L 678.05 675.68
  L 679.40 673.25
  L 680.80 669.36
  L 682.21 665.37
  L 697.68 626.78
  L 698.03 626.17
  L 698.03 626.17
  L 699.11 625.38
  L 700.76 625.02
  L 707.05 624.87
  L 713.54 625.20
  L 714.00 625.34
  L 714.36 625.65
  L 715.28 627.21
  L 715.78 628.85
  L 715.78 628.85
  L 715.86 629.76
  L 716.06 642.75
  L 715.99 655.89
  L 715.67 669.17
  L 715.08 682.61
  L 714.91 694.57
  L 714.92 699.18
  L 714.92 699.18
  L 714.67 699.78
  L 714.07 700.02
  L 704.18 699.90
  L 703.05 699.65
  L 702.11 698.98
  L 701.51 697.99
  L 701.36 696.85
  L 701.37 696.70
  L 701.19 694.98
  L 700.98 693.64
  L 700.80 688.21
  L 700.87 682.50
  L 701.07 672.78
  L 701.06 662.88
  L 700.84 660.67
  L 700.73 659.41
  L 700.98 658.48
  L 700.87 658.09
  L 700.84 658.08
  L 700.73 658.03
  L 700.72 658.03
  L 700.55 658.16
  Z"
/>
<path fill="#000000" d="
  M 402.62 656.91
  L 418.50 627.59
  L 419.36 626.56
  L 420.56 625.96
  L 424.38 625.19
  L 428.26 624.89
  L 431.48 625.11
  L 434.05 625.85
  L 434.11 625.88
  L 434.66 626.31
  L 434.99 626.92
  L 435.06 627.61
  L 434.85 628.27
  L 425.80 644.18
  L 413.78 664.58
  L 412.42 666.77
  L 410.92 669.21
  L 409.99 671.04
  L 409.43 672.71
  L 409.19 674.25
  L 408.86 684.94
  L 408.98 697.25
  L 408.82 698.58
  L 408.27 699.47
  L 408.27 699.47
  L 407.63 699.83
  L 406.79 699.97
  L 396.83 699.92
  L 396.15 699.76
  L 395.58 699.37
  L 395.20 698.78
  L 395.07 698.10
  L 394.96 676.49
  L 394.59 673.19
  L 393.57 670.43
  L 372.09 632.20
  L 370.83 629.68
  L 369.90 627.12
  L 369.98 626.51
  L 370.50 626.17
  L 370.50 626.17
  L 370.60 626.16
  L 375.60 625.87
  L 381.25 625.17
  L 382.71 625.22
  L 383.70 625.62
  L 384.58 626.28
  L 385.41 627.21
  L 386.25 628.52
  L 390.98 637.11
  L 395.00 644.94
  L 398.33 651.07
  L 401.53 656.90
  L 401.64 657.05
  L 402.16 657.23
  L 402.62 656.91
  Z"
/>
<path fill="#000000" d="
  M 540.00 639.75
  L 540.00 697.92
  L 539.84 698.71
  L 539.39 699.38
  L 538.72 699.83
  L 537.93 699.99
  L 528.14 699.99
  L 527.32 699.83
  L 526.63 699.36
  L 526.16 698.67
  L 526.00 697.85
  L 526.00 639.99
  L 525.71 639.28
  L 525.01 638.99
  L 525.01 638.99
  L 505.99 638.99
  L 505.24 638.84
  L 504.60 638.42
  L 504.18 637.79
  L 504.03 637.04
  L 504.03 626.77
  L 504.16 626.10
  L 504.55 625.53
  L 505.12 625.15
  L 505.79 625.02
  L 559.81 625.02
  L 560.51 625.13
  L 561.15 625.45
  L 561.65 625.95
  L 561.98 626.58
  L 562.52 628.56
  L 562.83 630.57
  L 562.83 630.57
  L 562.83 630.57
  L 562.84 633.67
  L 562.31 636.82
  L 561.93 637.69
  L 561.29 638.38
  L 560.46 638.83
  L 559.53 638.99
  L 540.76 638.99
  L 540.22 639.21
  L 540.00 639.75
  Z"
/>
<path fill="#000000" d="
  M 588.00 669.71
  L 588.00 686.36
  L 588.19 686.82
  L 588.65 687.01
  L 622.88 687.01
  L 623.79 687.33
  L 624.32 688.14
  L 624.91 691.61
  L 624.96 695.04
  L 624.30 699.03
  L 623.84 699.71
  L 623.06 699.98
  L 576.09 699.98
  L 575.27 699.82
  L 574.58 699.35
  L 574.12 698.66
  L 573.96 697.84
  L 573.96 626.75
  L 574.17 626.10
  L 574.73 625.72
  L 577.59 625.19
  L 581.25 625.01
  L 621.19 625.11
  L 622.71 625.34
  L 623.83 625.99
  L 624.51 627.00
  L 624.84 628.39
  L 625.04 632.48
  L 624.85 636.35
  L 624.66 637.01
  L 624.25 637.55
  L 623.68 637.92
  L 623.01 638.07
  L 588.53 639.32
  L 588.15 639.49
  L 588.00 639.87
  L 588.00 655.02
  L 588.30 655.75
  L 589.03 656.05
  L 619.57 656.05
  L 620.12 656.16
  L 620.59 656.47
  L 620.90 656.93
  L 621.01 657.48
  L 621.01 666.65
  L 620.87 667.43
  L 620.47 668.11
  L 619.86 668.61
  L 619.12 668.87
  L 616.75 669.00
  L 588.70 669.00
  L 588.21 669.21
  L 588.00 669.71
  Z"
/>
</svg>
